<?xml version="1.0" encoding="UTF-8" standalone="no"?>
<!-- Created with Inkscape (http://www.inkscape.org/) -->

<svg
   xmlns:dc="http://purl.org/dc/elements/1.1/"
   xmlns:cc="http://creativecommons.org/ns#"
   xmlns:rdf="http://www.w3.org/1999/02/22-rdf-syntax-ns#"
   xmlns:svg="http://www.w3.org/2000/svg"
   xmlns="http://www.w3.org/2000/svg"
   xmlns:sodipodi="http://sodipodi.sourceforge.net/DTD/sodipodi-0.dtd"
   xmlns:inkscape="http://www.inkscape.org/namespaces/inkscape"
   width="44.333332mm"
   height="44.333332mm"
   viewBox="0 0 157.08661 157.0866"
   id="svg6694"
   version="1.1"
   inkscape:version="0.91 r13725"
   sodipodi:docname="Clubs.svg">
  <defs
     id="defs6696">
    <clipPath
       clipPathUnits="userSpaceOnUse"
       id="clipPath4175">
      <a
         id="a4177"
         style="fill:#000000">
        <circle
           style="fill:#000000;fill-rule:evenodd;stroke:#000000;stroke-width:0.15952933px;stroke-linecap:butt;stroke-linejoin:miter;stroke-opacity:1"
           id="circle4179"
           cx="1251.6433"
           cy="-169.28076"
           r="74.920235" />
      </a>
    </clipPath>
    <clipPath
       clipPathUnits="userSpaceOnUse"
       id="clipPath4468">
      <a
         id="a4470"
         style="opacity:1;fill:#808080"
         transform="translate(984.83459,-5.6923761)">
        <circle
           style="fill:#808080;fill-rule:evenodd;stroke:#000000;stroke-width:0.15952933px;stroke-linecap:butt;stroke-linejoin:miter;stroke-opacity:1"
           id="circle4472"
           cx="1251.6433"
           cy="-169.28076"
           r="74.920235" />
      </a>
    </clipPath>
  </defs>
  <sodipodi:namedview
     id="base"
     pagecolor="#ffffff"
     bordercolor="#666666"
     borderopacity="1.0"
     inkscape:pageopacity="0.0"
     inkscape:pageshadow="2"
     inkscape:zoom="0.69457363"
     inkscape:cx="21.578551"
     inkscape:cy="-91.184574"
     inkscape:document-units="px"
     inkscape:current-layer="layer1"
     showgrid="false"
     fit-margin-top="1"
     fit-margin-left="1"
     fit-margin-right="1"
     fit-margin-bottom="1"
     inkscape:window-width="870"
     inkscape:window-height="411"
     inkscape:window-x="2725"
     inkscape:window-y="0"
     inkscape:window-maximized="0" />
  <metadata
     id="metadata6699">
    <rdf:RDF>
      <cc:Work
         rdf:about="">
        <dc:format>image/svg+xml</dc:format>
        <dc:type
           rdf:resource="http://purl.org/dc/dcmitype/StillImage" />
        <dc:title></dc:title>
      </cc:Work>
    </rdf:RDF>
  </metadata>
  <g
     inkscape:label="Layer 1"
     inkscape:groupmode="layer"
     id="layer1"
     transform="translate(-760.0247,-1534.33)">
    <path
       style="display:inline;opacity:1;fill:#ffd700;fill-opacity:1"
       d="m 816.6296,1662.358 c 4.7442,-1.3906 7.7794,-3.015 10.4184,-5.5758 1.691,-1.6409 2.8471,-3.2464 3.8894,-5.4012 1.5554,-3.2158 2.5699,-7.1516 3.2579,-12.6389 0.2058,-1.6409 0.6118,-5.7981 0.5721,-5.8583 -0.01,-0.014 -1.5299,1.118 -3.3797,2.5148 -6.8122,5.1441 -10.4515,7.3121 -14.583,8.6875 -2.708,0.9015 -4.204,1.1565 -6.8418,1.1665 -3.4687,0.013 -6.0603,-0.5918 -9.1407,-2.1338 -6.2754,-3.1413 -10.5974,-9.0626 -11.9128,-16.3212 -0.3499,-1.9313 -0.3499,-5.9853 0,-7.9166 1.2999,-7.1731 5.5686,-13.083 11.7238,-16.2315 5.0412,-2.5787 10.5755,-2.9777 16.2741,-1.1735 2.2772,0.7209 6.1115,2.6985 7.7978,4.0217 0.2784,0.2184 0.543,0.3972 0.5881,0.3972 0.045,0 -0.3117,-0.6094 -0.7928,-1.3542 -4.1152,-6.3705 -6.0067,-10.4816 -6.9203,-15.0409 -0.4611,-2.3008 -0.4651,-6.3176 -0.01,-8.571 0.4472,-2.2071 1.0109,-3.8533 2.033,-5.9367 1.1648,-2.3744 2.3005,-3.9545 4.2473,-5.9096 3.1179,-3.1313 6.9013,-5.1419 11.1495,-5.9251 1.7454,-0.3218 5.4,-0.3218 7.1454,0 4.2482,0.7832 8.0316,2.7938 11.1495,5.9251 1.9468,1.9551 3.0825,3.5352 4.2473,5.9096 1.0231,2.0854 1.5868,3.7325 2.032,5.9367 0.4479,2.2179 0.4405,5.6888 -0.017,8.1605 -0.9878,5.3327 -3.2343,10.4642 -6.7038,15.3125 -0.5877,0.8212 -1.0467,1.4931 -1.0201,1.4931 0.027,0 0.7883,-0.4472 1.6927,-0.9938 3.523,-2.1292 7.1431,-3.6442 10.1164,-4.2337 1.7136,-0.3397 5.3491,-0.342 7.0834,0 4.958,0.9649 9.2651,3.4912 12.4525,7.304 2.6154,3.1286 4.3114,6.7872 5.0593,10.9141 0.1838,1.0146 0.2516,2.0812 0.2516,3.9583 0,1.8771 -0.068,2.9437 -0.2516,3.9583 -1.7066,9.4171 -8.4962,16.4796 -17.5118,18.2155 -4.0322,0.7764 -9.2916,-0.2065 -14.6051,-2.7295 -3.7408,-1.7762 -7.9707,-4.612 -12.4088,-8.319 -0.6493,-0.5423 -1.2151,-0.9861 -1.2573,-0.9862 -0.095,-3e-4 0.1929,3.3379 0.4971,5.7637 0.688,5.4873 1.7025,9.4231 3.2579,12.6389 1.0423,2.1548 2.1984,3.7603 3.8894,5.4012 2.639,2.5608 5.6742,4.1852 10.4184,5.5758 l 1.5973,0.4682 -23.5417,0 -23.5417,0 1.5973,-0.4682 z"
       id="path4292"
       inkscape:connector-curvature="0" />
  </g>
</svg>
