<?xml version="1.0" encoding="UTF-8" standalone="no"?>
<!-- Created with Inkscape (http://www.inkscape.org/) -->

<svg
   xmlns:dc="http://purl.org/dc/elements/1.1/"
   xmlns:cc="http://creativecommons.org/ns#"
   xmlns:rdf="http://www.w3.org/1999/02/22-rdf-syntax-ns#"
   xmlns:svg="http://www.w3.org/2000/svg"
   xmlns="http://www.w3.org/2000/svg"
   xmlns:sodipodi="http://sodipodi.sourceforge.net/DTD/sodipodi-0.dtd"
   xmlns:inkscape="http://www.inkscape.org/namespaces/inkscape"
   width="44.333332mm"
   height="44.333332mm"
   viewBox="0 0 157.08661 157.0866"
   id="svg6694"
   version="1.1"
   inkscape:version="0.91 r13725"
   sodipodi:docname="Diamonds.svg">
  <defs
     id="defs6696">
    <clipPath
       clipPathUnits="userSpaceOnUse"
       id="clipPath4175">
      <a
         id="a4177"
         style="fill:#000000">
        <circle
           style="fill:#000000;fill-rule:evenodd;stroke:#000000;stroke-width:0.15952933px;stroke-linecap:butt;stroke-linejoin:miter;stroke-opacity:1"
           id="circle4179"
           cx="1251.6433"
           cy="-169.28076"
           r="74.920235" />
      </a>
    </clipPath>
    <clipPath
       clipPathUnits="userSpaceOnUse"
       id="clipPath4468">
      <a
         id="a4470"
         style="opacity:1;fill:#808080"
         transform="translate(984.83459,-5.6923761)">
        <circle
           style="fill:#808080;fill-rule:evenodd;stroke:#000000;stroke-width:0.15952933px;stroke-linecap:butt;stroke-linejoin:miter;stroke-opacity:1"
           id="circle4472"
           cx="1251.6433"
           cy="-169.28076"
           r="74.920235" />
      </a>
    </clipPath>
    <clipPath
       clipPathUnits="userSpaceOnUse"
       id="clipPath4275">
      <a
         id="a4277"
         style="opacity:0.97000002;fill:#4d4d4d"
         transform="translate(660.57558,-5.6923761)">
        <circle
           style="fill:#4d4d4d;fill-rule:evenodd;stroke:#000000;stroke-width:0.15952933px;stroke-linecap:butt;stroke-linejoin:miter;stroke-opacity:1"
           id="circle4279"
           cx="1251.6433"
           cy="-169.28076"
           r="74.920235" />
      </a>
    </clipPath>
    <clipPath
       clipPathUnits="userSpaceOnUse"
       id="clipPath4246">
      <a
         id="a4248"
         style="opacity:0.97000002;fill:#4d4d4d"
         transform="translate(336.31649,-5.6923761)">
        <circle
           style="fill:#4d4d4d;fill-rule:evenodd;stroke:#000000;stroke-width:0.15952933px;stroke-linecap:butt;stroke-linejoin:miter;stroke-opacity:1"
           id="circle4250"
           cx="1251.6433"
           cy="-169.28076"
           r="74.920235" />
      </a>
    </clipPath>
  </defs>
  <sodipodi:namedview
     id="base"
     pagecolor="#ffffff"
     bordercolor="#666666"
     borderopacity="1.0"
     inkscape:pageopacity="0.0"
     inkscape:pageshadow="2"
     inkscape:zoom="0.7"
     inkscape:cx="122.68325"
     inkscape:cy="-93.374299"
     inkscape:document-units="px"
     inkscape:current-layer="layer1"
     showgrid="false"
     fit-margin-top="1"
     fit-margin-left="1"
     fit-margin-right="1"
     fit-margin-bottom="1"
     inkscape:window-width="870"
     inkscape:window-height="411"
     inkscape:window-x="2725"
     inkscape:window-y="0"
     inkscape:window-maximized="0" />
  <metadata
     id="metadata6699">
    <rdf:RDF>
      <cc:Work
         rdf:about="">
        <dc:format>image/svg+xml</dc:format>
        <dc:type
           rdf:resource="http://purl.org/dc/dcmitype/StillImage" />
        <dc:title></dc:title>
      </cc:Work>
    </rdf:RDF>
  </metadata>
  <g
     inkscape:label="Layer 1"
     inkscape:groupmode="layer"
     id="layer1"
     transform="translate(-572.89603,-2635.5617)">
    <path
       style="display:inline;opacity:1;fill:#0F52BA;fill-opacity:1"
       d="m 649.54243,2761.0289 c -0.9993,-1.6028 -1.9782,-3.1658 -2.1753,-3.4733 -0.1971,-0.3075 -0.6374,-1.0103 -0.9785,-1.5616 -0.3411,-0.5514 -0.8805,-1.4141 -1.1985,-1.917 -0.3181,-0.5029 -1.854,-2.9631 -3.4132,-5.4671 -1.5592,-2.504 -2.9967,-4.8043 -3.1945,-5.1118 -0.1978,-0.3075 -0.6387,-1.0103 -0.9798,-1.5617 -0.5811,-0.9394 -1.1718,-1.8798 -2.3803,-3.7898 -0.278,-0.4393 -1.532,-2.452 -2.7867,-4.4728 -1.2548,-2.0208 -2.4428,-3.9257 -2.64,-4.2332 -0.1973,-0.3075 -0.6378,-1.0107 -0.9789,-1.5627 -0.3411,-0.552 -0.8365,-1.3427 -1.1009,-1.7572 -0.2643,-0.4145 -0.8348,-1.3287 -1.2677,-2.0316 -0.4329,-0.7029 -1.0851,-1.7452 -1.4495,-2.3163 -0.3643,-0.5711 -1.3297,-2.1166 -2.1454,-3.4345 -0.8156,-1.3179 -1.6072,-2.5759 -1.7591,-2.7955 -0.1519,-0.2197 -0.397,-0.633 -0.5447,-0.9185 -0.2515,-0.4863 -0.2515,-0.5521 0,-1.0384 0.1477,-0.2855 0.3928,-0.6989 0.5447,-0.9185 0.1519,-0.2197 0.9443,-1.4776 1.7609,-2.7955 1.5444,-2.4925 2.4955,-4.0175 3.437,-5.5112 0.3046,-0.4832 0.8578,-1.3676 1.2292,-1.9652 0.8379,-1.3483 1.8049,-2.8889 2.2758,-3.6259 0.1965,-0.3075 1.3838,-2.2124 2.6386,-4.2332 1.2547,-2.0208 2.5094,-4.0335 2.7881,-4.4728 0.2788,-0.4393 0.7885,-1.2499 1.1328,-1.8013 1.4227,-2.2787 1.8871,-3.0191 2.2264,-3.5502 0.1965,-0.3075 1.3839,-2.2124 2.6386,-4.2332 1.2548,-2.0208 2.5094,-4.0335 2.7882,-4.4728 0.2787,-0.4393 0.7884,-1.2499 1.1327,-1.8013 0.3443,-0.5514 0.8843,-1.414 1.1999,-1.9169 0.3157,-0.503 1.5737,-2.5133 2.7956,-4.4674 1.2218,-1.9541 2.2575,-3.5533 2.3014,-3.5536 0.044,-3e-4 1.0109,1.4907 2.1488,3.3134 1.1379,1.8227 2.3959,3.8299 2.7956,4.4606 0.3996,0.6306 0.9161,1.4573 1.1479,1.837 0.6285,1.0298 2.6696,4.2947 3.0283,4.8438 0.1721,0.2636 1.0264,1.6294 1.8983,3.0352 2.4968,4.0254 3.4137,5.4904 5.1991,8.3067 0.2785,0.4393 1.7133,2.7396 3.1884,5.1118 1.4751,2.3722 2.9418,4.7227 3.2592,5.2233 0.3175,0.5006 0.8811,1.3991 1.2525,1.9968 0.3714,0.5976 0.9246,1.482 1.2292,1.9652 0.9415,1.4937 1.8926,3.0187 3.437,5.5112 0.8166,1.3179 1.609,2.5758 1.7609,2.7955 0.1519,0.2196 0.397,0.633 0.5447,0.9185 0.2515,0.4863 0.2515,0.5521 0,1.0384 -0.1477,0.2855 -0.3928,0.6988 -0.5447,0.9185 -0.1519,0.2196 -0.9443,1.4776 -1.7609,2.7955 -1.5444,2.4925 -2.4955,4.0175 -3.437,5.5112 -0.3046,0.4832 -0.8578,1.3676 -1.2292,1.9652 -0.8684,1.3974 -1.8221,2.9163 -2.2767,3.6259 -0.197,0.3075 -1.6338,2.6078 -3.193,5.1118 -1.5592,2.504 -3.0952,4.9642 -3.4132,5.4671 -0.3181,0.5029 -0.8574,1.3656 -1.1985,1.9169 -0.3411,0.5514 -0.7808,1.2542 -0.9771,1.5617 -0.1964,0.3075 -1.0254,1.6374 -1.8423,2.9552 -0.8169,1.3179 -1.7139,2.7556 -1.9934,3.1949 -0.7863,1.2361 -2.9515,4.6943 -3.9732,6.3458 -0.3411,0.5513 -0.7814,1.2541 -0.9785,1.5616 -0.1971,0.3075 -1.176,1.8705 -2.1753,3.4733 -0.9994,1.6028 -1.853,2.9142 -1.8969,2.9142 -0.044,0 -0.8975,-1.3114 -1.8969,-2.9142 z"
       id="path4234"
       inkscape:connector-curvature="0" />
  </g>
</svg>
