<?xml version="1.0" encoding="UTF-8" standalone="no"?>
<svg
   xmlns:dc="http://purl.org/dc/elements/1.1/"
   xmlns:cc="http://creativecommons.org/ns#"
   xmlns:rdf="http://www.w3.org/1999/02/22-rdf-syntax-ns#"
   xmlns:svg="http://www.w3.org/2000/svg"
   xmlns="http://www.w3.org/2000/svg"
   xmlns:sodipodi="http://sodipodi.sourceforge.net/DTD/sodipodi-0.dtd"
   xmlns:inkscape="http://www.inkscape.org/namespaces/inkscape"
   version="1.1"
   x="0px"
   y="0px"
   viewBox="0 0 200 200"
   enable-background="new 0 0 397 456"
   xml:space="preserve"
   id="svg2"
   inkscape:version="0.91 r13725"
   sodipodi:docname="Dragon.svg"
   width="200"
   height="200"><metadata
     id="metadata14"><rdf:RDF><cc:Work
         rdf:about=""><dc:format>image/svg+xml</dc:format><dc:type
           rdf:resource="http://purl.org/dc/dcmitype/StillImage" /><dc:title></dc:title></cc:Work></rdf:RDF></metadata><defs
     id="defs12" /><sodipodi:namedview
     pagecolor="#ffffff"
     bordercolor="#666666"
     borderopacity="0"
     objecttolerance="10"
     gridtolerance="10"
     guidetolerance="10"
     inkscape:pageopacity="0"
     inkscape:pageshadow="2"
     inkscape:window-width="870"
     inkscape:window-height="762"
     id="namedview10"
     showgrid="false"
     fit-margin-top="0"
     fit-margin-left="0"
     fit-margin-right="0"
     fit-margin-bottom="0"
     inkscape:zoom="0.48327731"
     inkscape:cx="78.485183"
     inkscape:cy="-858.36506"
     inkscape:window-x="2299"
     inkscape:window-y="167"
     inkscape:window-maximized="0"
     inkscape:current-layer="svg2" /><circle
     style="color:#000000;clip-rule:nonzero;display:inline;overflow:visible;visibility:visible;opacity:1;isolation:auto;mix-blend-mode:normal;color-interpolation:sRGB;color-interpolation-filters:linearRGB;solid-color:#000000;solid-opacity:1;fill:#b03535;fill-opacity:1;fill-rule:evenodd;stroke:none;stroke-width:1.01499999;stroke-linecap:round;stroke-linejoin:miter;stroke-miterlimit:4;stroke-dasharray:none;stroke-dashoffset:0;stroke-opacity:1;color-rendering:auto;image-rendering:auto;shape-rendering:auto;text-rendering:auto;enable-background:accumulate"
     id="path4152-0"
     cx="100"
     cy="102.00999"
     r="100" /><circle
     style="color:#000000;clip-rule:nonzero;display:inline;overflow:visible;visibility:visible;opacity:1;isolation:auto;mix-blend-mode:normal;color-interpolation:sRGB;color-interpolation-filters:linearRGB;solid-color:#000000;solid-opacity:1;fill:#000000;fill-opacity:0;fill-rule:evenodd;stroke:#ebc16e;stroke-width:3.843;stroke-linecap:round;stroke-linejoin:miter;stroke-miterlimit:4;stroke-dasharray:none;stroke-dashoffset:0;stroke-opacity:1;color-rendering:auto;image-rendering:auto;shape-rendering:auto;text-rendering:auto;enable-background:accumulate"
     id="path4152-0-3"
     cx="100"
     cy="102.00999"
     r="96.07843" /><g
     transform="translate(-534.70328,268.58368)"
     style="image-rendering:optimizeQuality;shape-rendering:geometricPrecision;text-rendering:geometricPrecision"
     id="g8"><path
       inkscape:connector-curvature="0"
       class="fil1"
       d="m 577.5742,-192.03951 c 6.19792,-25.04994 25.82469,7.74741 4.9067,8.00565 0,0 -0.77474,7.23091 -7.74742,4.13195 0,0 -0.25824,9.03864 12.39585,12.91234 0,0 -1.54947,-17.81903 31.76437,-6.97266 0,0 1.03299,-7.23091 -3.61546,-10.84637 0,0 9.03864,-3.8737 13.1706,1.29124 0,0 2.58247,-8.00566 -6.19792,-9.03864 0,0 9.81337,-7.48916 1.29122,-16.5278 0,0 11.36287,2.32422 6.71442,12.91234 0,0 25.04995,4.13195 -8.52214,33.31384 -70.24314,25.04995 -37.70405,84.704969 16.26955,79.540029 0,0 -22.46748,-33.830329 24.53345,-36.412799 0,0 -8.00566,-14.20359 -32.28086,-5.68144 0,0 21.95098,-24.01696 42.61073,3.3572 0,0 -13.17059,-45.96792 -59.91326,-10.07161 15.49481,-40.28651 81.86424,-6.71442 74.63333,-39.51177 -18.59378,20.65975 -38.99528,-23.75871 3.8737,-18.59377 0,0 15.23656,1.80773 23.24222,16.5278 0,0 -11.87936,-52.94061 -65.85295,-19.36852 0,0 -6.71442,-25.30819 33.57209,-18.33552 0,0 -15.75306,-17.0443 -44.16021,-9.81338 0,0 19.62676,-12.6541 21.43449,-26.59943 0,0 -10.58812,20.14325 -41.31949,27.11592 0,0 17.56078,-10.84637 19.36852,-29.44014 0,0 -10.32988,19.88501 -27.89066,27.63241 0,0 8.26389,-13.68708 -0.77475,-23.75871 0,0 1.80773,21.95098 -10.32987,24.53345 l -1.03299,-12.39585 c 0,0 -13.68709,26.08294 -22.46748,28.92365 l 0,-6.45617 c 0,0 -7.2309,11.62111 -20.14324,10.07163 0,0 -3.35721,12.39585 9.29688,17.56078 l -0.51649,-8.00565 6.97267,3.35721 -1.033,-5.42318 7.7474,2.06597 z m 23.24223,-19.11027 c 0,0 -4.64846,7.48916 -8.78039,5.42319 0,0 -4.39021,-6.97267 8.78039,-5.42319 z"
       id="path12"
       style="fill:#ebc16e;fill-opacity:1" /></g></svg>