<?xml version="1.0" encoding="UTF-8" standalone="no"?>
<!-- Created with Inkscape (http://www.inkscape.org/) -->

<svg
   xmlns:dc="http://purl.org/dc/elements/1.1/"
   xmlns:cc="http://creativecommons.org/ns#"
   xmlns:rdf="http://www.w3.org/1999/02/22-rdf-syntax-ns#"
   xmlns:svg="http://www.w3.org/2000/svg"
   xmlns="http://www.w3.org/2000/svg"
   xmlns:sodipodi="http://sodipodi.sourceforge.net/DTD/sodipodi-0.dtd"
   xmlns:inkscape="http://www.inkscape.org/namespaces/inkscape"
   width="44.333332mm"
   height="44.333332mm"
   viewBox="0 0 157.08661 157.0866"
   id="svg6694"
   version="1.1"
   inkscape:version="0.91 r13725"
   sodipodi:docname="Hearts.svg">
  <defs
     id="defs6696">
    <clipPath
       clipPathUnits="userSpaceOnUse"
       id="clipPath4175">
      <a
         id="a4177"
         style="fill:#000000">
        <circle
           style="fill:#000000;fill-rule:evenodd;stroke:#000000;stroke-width:0.15952933px;stroke-linecap:butt;stroke-linejoin:miter;stroke-opacity:1"
           id="circle4179"
           cx="1251.6433"
           cy="-169.28076"
           r="74.920235" />
      </a>
    </clipPath>
    <clipPath
       clipPathUnits="userSpaceOnUse"
       id="clipPath4468">
      <a
         id="a4470"
         style="opacity:1;fill:#808080"
         transform="translate(984.83459,-5.6923761)">
        <circle
           style="fill:#808080;fill-rule:evenodd;stroke:#000000;stroke-width:0.15952933px;stroke-linecap:butt;stroke-linejoin:miter;stroke-opacity:1"
           id="circle4472"
           cx="1251.6433"
           cy="-169.28076"
           r="74.920235" />
      </a>
    </clipPath>
    <clipPath
       clipPathUnits="userSpaceOnUse"
       id="clipPath4275">
      <a
         id="a4277"
         style="opacity:0.97000002;fill:#4d4d4d"
         transform="translate(660.57558,-5.6923761)">
        <circle
           style="fill:#4d4d4d;fill-rule:evenodd;stroke:#000000;stroke-width:0.15952933px;stroke-linecap:butt;stroke-linejoin:miter;stroke-opacity:1"
           id="circle4279"
           cx="1251.6433"
           cy="-169.28076"
           r="74.920235" />
      </a>
    </clipPath>
  </defs>
  <sodipodi:namedview
     id="base"
     pagecolor="#ffffff"
     bordercolor="#666666"
     borderopacity="1.0"
     inkscape:pageopacity="0.0"
     inkscape:pageshadow="2"
     inkscape:zoom="0.49497474"
     inkscape:cx="32.647658"
     inkscape:cy="-276.37192"
     inkscape:document-units="px"
     inkscape:current-layer="layer1"
     showgrid="false"
     fit-margin-top="1"
     fit-margin-left="1"
     fit-margin-right="1"
     fit-margin-bottom="1"
     inkscape:window-width="870"
     inkscape:window-height="411"
     inkscape:window-x="2725"
     inkscape:window-y="0"
     inkscape:window-maximized="0"
     showguides="false" />
  <metadata
     id="metadata6699">
    <rdf:RDF>
      <cc:Work
         rdf:about="">
        <dc:format>image/svg+xml</dc:format>
        <dc:type
           rdf:resource="http://purl.org/dc/dcmitype/StillImage" />
        <dc:title></dc:title>
      </cc:Work>
    </rdf:RDF>
  </metadata>
  <g
     inkscape:label="Layer 1"
     inkscape:groupmode="layer"
     id="layer1"
     transform="translate(-705.72505,-1968.447)">
    <path
       style="display:inline;opacity:1;fill:#0F52BA"
       d="m 762.48126,2073.9514 c -11.8643,-12.5015 -21.9258,-23.1423 -22.3587,-23.6462 -2.4807,-2.8872 -4.5609,-7.1502 -5.3094,-10.8808 -0.4315,-2.1503 -0.5081,-2.9503 -0.5032,-5.2506 0.01,-2.5494 0.1563,-3.787 0.7442,-6.1061 2.5485,-10.0527 11.1443,-17.526 21.468,-18.6645 1.4523,-0.1602 4.4074,-0.1357 5.8127,0.048 4.8696,0.6369 9.0639,2.4616 12.9092,5.6162 3.4948,2.867 6.2615,6.9199 7.7127,11.2985 0.4295,1.2957 0.8752,3.1288 1.0041,4.1291 0.059,0.4576 0.097,0.5255 0.2922,0.5255 0.1954,0 0.2332,-0.068 0.2922,-0.5255 0.1289,-1.0003 0.5746,-2.8334 1.0041,-4.1291 1.4512,-4.3786 4.2179,-8.4315 7.7127,-11.2985 3.8453,-3.1546 8.0396,-4.9793 12.9092,-5.6162 1.4053,-0.1838 4.3604,-0.2083 5.8127,-0.048 10.3754,1.1442 19.0228,8.7092 21.5066,18.8146 0.6406,2.606 0.8648,4.9681 0.6664,7.0181 -0.6176,6.3791 -2.1394,10.4598 -5.5322,14.8349 -0.6661,0.8589 -44.3671,46.6193 -44.5153,46.6131 -0.031,0 -9.7638,-10.2309 -21.6282,-22.7325 z"
       id="path4263"
       inkscape:connector-curvature="0" />
  </g>
</svg>
