

<svg xmlns="http://www.w3.org/2000/svg" style="display: none;">
  
    <symbol id="icon-clubs" viewBox="0 0 512 512">
      <path d="m14-5l-3 0c0 2-1 3-3 3-3 0-4-2-4-5 0-4 1-6 4-6 2 0 3 1 3 3l3 0c0-3-3-5-6-5-4 0-7 3-7 8 0 4 3 7 7 7 3 0 6-2 6-5z m-6-3l0-3c-1 0-1 0-1 0-1 0-2 1-3 2l0-2-3 0 0 11 3 0 0-6c0-2 1-2 3-2 0 0 0 0 1 0z m3 3c0-4-2-6-5-6-4 0-6 2-6 6 0 3 2 5 6 5 2 0 4-1 5-3l-3 0c0 1-1 1-2 1-2 0-3-1-3-3l8 0z m-3-2l-5 0c1-1 1-2 3-2 1 0 2 1 2 2z m3 7l0 0c-1-1-1-1-1-2l0-6c0-2-1-3-4-3-3 0-5 1-5 4l3 0c0-2 0-2 2-2 1 0 1 0 1 1 0 1-1 1-2 1l-1 1c-2 0-3 1-3 3 0 2 1 3 3 3 1 0 2 0 3-1 0 0 0 1 1 1l3 0z m-4-5c0 2-1 3-2 3-1 0-2-1-2-1 0-1 1-1 2-2l1 0c1 0 1 0 1 0z m-1 5l0-2c0 0 0 0 0 0-1 0-1 0-1-1l0-6 1 0 0-2-1 0 0-3-3 0 0 3-2 0 0 2 2 0 0 7c0 1 1 2 3 2 0 0 1 0 1 0z m5 0l0-15-3 0 0 5c0-1-1-1-3-1-2 0-4 2-4 5 0 4 1 6 4 6 2 0 3 0 3-1l0 1 3 0z m-3-5c0 2-1 3-2 3-2 0-3-2-3-4 0-2 1-3 3-3 1 0 2 1 2 4z m4 0c0-4-2-6-5-6-1 0-2 0-3 1l0-5-3 0 0 15 3 0 0-1c1 1 2 1 3 1 3 0 5-2 5-5z m-3-1c0 2-1 4-2 4-2 0-3-1-3-4 0-2 1-3 3-3 1 0 2 1 2 3z m2-5l-3 0-2 8-3-8-3 0 4 11 0 1c0 1 0 1-1 1-1 0-1 0-1 0l0 2c0 0 0 0 1 0 2 0 3 0 3-2z m1-1l0-3-12 0 0 3 5 0 0 12 3 0 0-12 4 0z m-8 12l0-11-3 0 0 11 3 0z m0-12l0-3-3 0 0 3 3 0z m13 12l0-8c0-2-1-3-4-3-1 0-2 0-3 1 0-1-2-1-3-1-1 0-2 0-3 1l0-1-3 0 0 11 3 0 0-7c0-1 1-2 2-2 1 0 2 1 2 2l0 7 2 0 0-7c0-1 1-2 2-2 1 0 2 1 2 2l0 7 3 0z m-4-5c0-2-1-3-4-4l-2 0c-3 0-3-1-3-2 0-1 1-2 2-2 2 0 4 1 4 3l2 0c0-4-2-5-5-5-4 0-6 1-6 4 0 3 1 4 4 4l2 1c2 0 3 1 3 2 0 1-1 2-3 2-2 0-3-1-3-3l-3 0c0 3 2 5 6 5 4 0 6-1 6-5z m-2 1l-3 0c0 1-1 2-2 2-2 0-2-1-2-3 0-3 0-4 2-4 1 0 2 1 2 2l3 0c-1-3-2-4-5-4-3 0-5 2-5 6 0 3 2 5 5 5 3 0 4-2 5-4z m0 4l0-7c0-3-1-4-4-4-1 0-2 0-3 1l0-5-3 0 0 15 3 0 0-7c0-1 1-2 2-2 1 0 2 1 2 2l0 7 3 0z m0-3l0 0c0-2-1-3-3-3l-3-1c-1 0-1-1-1-1 0-1 1-1 2-1 1 0 2 0 2 1l2 0c0-2-1-3-4-3-3 0-5 1-5 3 0 2 0 3 2 3l4 1c1 0 1 1 1 1 0 1-1 1-2 1-2 0-2 0-3-2l-2 0c0 3 1 4 5 4 3 0 5-1 5-3z m-5-6l0-2-1 0 0-1c0-1 0-1 0-1 1 0 1 0 1 0l0-2c0 0-1 0-1 0-2 0-3 1-3 3l0 1-2 0 0 2 2 0 0 9 3 0 0-9 1 0z m6 4c0-4-2-6-6-6-3 0-5 2-5 5 0 4 2 6 5 6 4 0 6-2 6-5z m-3-1c0 3-1 4-3 4-1 0-2-1-2-4 0-2 1-3 2-3 2 0 3 1 3 3z m5 6l0-15-4 0 0 10-5-10-4 0 0 15 3 0 0-10 6 10 4 0z m-3 0l0-11-3 0 0 7c0 1-1 2-2 2-1 0-2-1-2-2l0-7-3 0 0 7c0 3 2 4 4 4 1 0 2 0 3-1l0 1 3 0z m0 0l0-7c0-3-1-4-4-4-1 0-2 0-3 1l0-1-3 0 0 11 3 0 0-7c0-1 1-2 2-2 2 0 2 1 2 2l0 7 3 0z m2-10c0-3-2-5-5-5l-6 0 0 15 3 0 0-5 3 0c3 0 5-2 5-5z m-3 0c0 1-1 2-2 2l-3 0 0-4 3 0c1 0 2 0 2 2z m-6 12l0-13-3 0 0 12c0 1 0 1 0 1-1 0-1 0-1 0l0 2c1 0 1 0 2 0 2 0 2 0 2-2z m0-14l0-3-3 0 0 3 3 0z m304 175c-4 0-8 0-12 2 4-7 7-15 7-23 0-2 1-3 1-4 0-28-22-50-48-50-26 0-48 22-48 50 0 2 0 4 1 6 1 7 3 15 7 21-3-1-8-2-12-2-26 0-47 22-47 50 0 27 21 49 47 49 2 0 4 0 7 0 15-2 28-12 35-26 0 29-11 56-29 77-1 1-1 2-1 2 1 1 1 2 2 2l77 0c0 0 1-1 2-2 0 0 0-1-1-2-19-21-29-48-31-77 8 15 23 25 40 26l1 0c0 0 1 0 1 0 26 0 48-22 48-50 0-27-21-49-47-49z"/>
    </symbol>
  
    <symbol id="icon-diamonds" viewBox="0 0 512 512">
      <path d="m14-5l-3 0c0 2-1 3-3 3-3 0-4-2-4-5 0-4 1-6 4-6 2 0 3 1 3 3l3 0c0-3-3-5-6-5-4 0-7 3-7 8 0 4 3 7 7 7 3 0 6-2 6-5z m-6-3l0-3c-1 0-1 0-1 0-1 0-2 1-3 2l0-2-3 0 0 11 3 0 0-6c0-2 1-2 3-2 0 0 0 0 1 0z m3 3c0-4-2-6-5-6-4 0-6 2-6 6 0 3 2 5 6 5 2 0 4-1 5-3l-3 0c0 1-1 1-2 1-2 0-3-1-3-3l8 0z m-3-2l-5 0c1-1 1-2 3-2 1 0 2 1 2 2z m3 7l0 0c-1-1-1-1-1-2l0-6c0-2-1-3-4-3-3 0-5 1-5 4l3 0c0-2 0-2 2-2 1 0 1 0 1 1 0 1-1 1-2 1l-1 1c-2 0-3 1-3 3 0 2 1 3 3 3 1 0 2 0 3-1 0 0 0 1 1 1l3 0z m-4-5c0 2-1 3-2 3-1 0-2-1-2-1 0-1 1-1 2-2l1 0c1 0 1 0 1 0z m-1 5l0-2c0 0 0 0 0 0-1 0-1 0-1-1l0-6 1 0 0-2-1 0 0-3-3 0 0 3-2 0 0 2 2 0 0 7c0 1 1 2 3 2 0 0 1 0 1 0z m5 0l0-15-3 0 0 5c0-1-1-1-3-1-2 0-4 2-4 5 0 4 1 6 4 6 2 0 3 0 3-1l0 1 3 0z m-3-5c0 2-1 3-2 3-2 0-3-2-3-4 0-2 1-3 3-3 1 0 2 1 2 4z m4 0c0-4-2-6-5-6-1 0-2 0-3 1l0-5-3 0 0 15 3 0 0-1c1 1 2 1 3 1 3 0 5-2 5-5z m-3-1c0 2-1 4-2 4-2 0-3-1-3-4 0-2 1-3 3-3 1 0 2 1 2 3z m2-5l-3 0-2 8-3-8-3 0 4 11 0 1c0 1 0 1-1 1-1 0-1 0-1 0l0 2c0 0 0 0 1 0 2 0 3 0 3-2z m1-1l0-3-12 0 0 3 5 0 0 12 3 0 0-12 4 0z m-8 12l0-11-3 0 0 11 3 0z m0-12l0-3-3 0 0 3 3 0z m13 12l0-8c0-2-1-3-4-3-1 0-2 0-3 1 0-1-2-1-3-1-1 0-2 0-3 1l0-1-3 0 0 11 3 0 0-7c0-1 1-2 2-2 1 0 2 1 2 2l0 7 2 0 0-7c0-1 1-2 2-2 1 0 2 1 2 2l0 7 3 0z m-4-5c0-2-1-3-4-4l-2 0c-3 0-3-1-3-2 0-1 1-2 2-2 2 0 4 1 4 3l2 0c0-4-2-5-5-5-4 0-6 1-6 4 0 3 1 4 4 4l2 1c2 0 3 1 3 2 0 1-1 2-3 2-2 0-3-1-3-3l-3 0c0 3 2 5 6 5 4 0 6-1 6-5z m-2 1l-3 0c0 1-1 2-2 2-2 0-2-1-2-3 0-3 0-4 2-4 1 0 2 1 2 2l3 0c-1-3-2-4-5-4-3 0-5 2-5 6 0 3 2 5 5 5 3 0 4-2 5-4z m0 4l0-7c0-3-1-4-4-4-1 0-2 0-3 1l0-5-3 0 0 15 3 0 0-7c0-1 1-2 2-2 1 0 2 1 2 2l0 7 3 0z m0-3l0 0c0-2-1-3-3-3l-3-1c-1 0-1-1-1-1 0-1 1-1 2-1 1 0 2 0 2 1l2 0c0-2-1-3-4-3-3 0-5 1-5 3 0 2 0 3 2 3l4 1c1 0 1 1 1 1 0 1-1 1-2 1-2 0-2 0-3-2l-2 0c0 3 1 4 5 4 3 0 5-1 5-3z m-5-6l0-2-1 0 0-1c0-1 0-1 0-1 1 0 1 0 1 0l0-2c0 0-1 0-1 0-2 0-3 1-3 3l0 1-2 0 0 2 2 0 0 9 3 0 0-9 1 0z m6 4c0-4-2-6-6-6-3 0-5 2-5 5 0 4 2 6 5 6 4 0 6-2 6-5z m-3-1c0 3-1 4-3 4-1 0-2-1-2-4 0-2 1-3 2-3 2 0 3 1 3 3z m5 6l0-15-4 0 0 10-5-10-4 0 0 15 3 0 0-10 6 10 4 0z m-3 0l0-11-3 0 0 7c0 1-1 2-2 2-1 0-2-1-2-2l0-7-3 0 0 7c0 3 2 4 4 4 1 0 2 0 3-1l0 1 3 0z m0 0l0-7c0-3-1-4-4-4-1 0-2 0-3 1l0-1-3 0 0 11 3 0 0-7c0-1 1-2 2-2 2 0 2 1 2 2l0 7 3 0z m2-10c0-3-2-5-5-5l-6 0 0 15 3 0 0-5 3 0c3 0 5-2 5-5z m-3 0c0 1-1 2-2 2l-3 0 0-4 3 0c1 0 2 0 2 2z m-6 12l0-13-3 0 0 12c0 1 0 1 0 1-1 0-1 0-1 0l0 2c1 0 1 0 2 0 2 0 2 0 2-2z m0-14l0-3-3 0 0 3 3 0z m326 216c-32-34-57-75-72-119 0-2-3-2-4 0-15 44-40 85-72 119-1 0-1 2 0 2 32 34 57 75 72 119 0 1 1 2 2 2 1 0 2-1 2-2 15-44 40-85 72-119 1 0 1-2 0-2z"/>
    </symbol>
  
    <symbol id="icon-hearts" viewBox="0 0 512 512">
      <path d="m14-5l-3 0c0 2-1 3-3 3-3 0-4-2-4-5 0-4 1-6 4-6 2 0 3 1 3 3l3 0c0-3-3-5-6-5-4 0-7 3-7 8 0 4 3 7 7 7 3 0 6-2 6-5z m-6-3l0-3c-1 0-1 0-1 0-1 0-2 1-3 2l0-2-3 0 0 11 3 0 0-6c0-2 1-2 3-2 0 0 0 0 1 0z m3 3c0-4-2-6-5-6-4 0-6 2-6 6 0 3 2 5 6 5 2 0 4-1 5-3l-3 0c0 1-1 1-2 1-2 0-3-1-3-3l8 0z m-3-2l-5 0c1-1 1-2 3-2 1 0 2 1 2 2z m3 7l0 0c-1-1-1-1-1-2l0-6c0-2-1-3-4-3-3 0-5 1-5 4l3 0c0-2 0-2 2-2 1 0 1 0 1 1 0 1-1 1-2 1l-1 1c-2 0-3 1-3 3 0 2 1 3 3 3 1 0 2 0 3-1 0 0 0 1 1 1l3 0z m-4-5c0 2-1 3-2 3-1 0-2-1-2-1 0-1 1-1 2-2l1 0c1 0 1 0 1 0z m-1 5l0-2c0 0 0 0 0 0-1 0-1 0-1-1l0-6 1 0 0-2-1 0 0-3-3 0 0 3-2 0 0 2 2 0 0 7c0 1 1 2 3 2 0 0 1 0 1 0z m5 0l0-15-3 0 0 5c0-1-1-1-3-1-2 0-4 2-4 5 0 4 1 6 4 6 2 0 3 0 3-1l0 1 3 0z m-3-5c0 2-1 3-2 3-2 0-3-2-3-4 0-2 1-3 3-3 1 0 2 1 2 4z m4 0c0-4-2-6-5-6-1 0-2 0-3 1l0-5-3 0 0 15 3 0 0-1c1 1 2 1 3 1 3 0 5-2 5-5z m-3-1c0 2-1 4-2 4-2 0-3-1-3-4 0-2 1-3 3-3 1 0 2 1 2 3z m2-5l-3 0-2 8-3-8-3 0 4 11 0 1c0 1 0 1-1 1-1 0-1 0-1 0l0 2c0 0 0 0 1 0 2 0 3 0 3-2z m1-1l0-3-12 0 0 3 5 0 0 12 3 0 0-12 4 0z m-8 12l0-11-3 0 0 11 3 0z m0-12l0-3-3 0 0 3 3 0z m13 12l0-8c0-2-1-3-4-3-1 0-2 0-3 1 0-1-2-1-3-1-1 0-2 0-3 1l0-1-3 0 0 11 3 0 0-7c0-1 1-2 2-2 1 0 2 1 2 2l0 7 2 0 0-7c0-1 1-2 2-2 1 0 2 1 2 2l0 7 3 0z m-4-5c0-2-1-3-4-4l-2 0c-3 0-3-1-3-2 0-1 1-2 2-2 2 0 4 1 4 3l2 0c0-4-2-5-5-5-4 0-6 1-6 4 0 3 1 4 4 4l2 1c2 0 3 1 3 2 0 1-1 2-3 2-2 0-3-1-3-3l-3 0c0 3 2 5 6 5 4 0 6-1 6-5z m-2 1l-3 0c0 1-1 2-2 2-2 0-2-1-2-3 0-3 0-4 2-4 1 0 2 1 2 2l3 0c-1-3-2-4-5-4-3 0-5 2-5 6 0 3 2 5 5 5 3 0 4-2 5-4z m0 4l0-7c0-3-1-4-4-4-1 0-2 0-3 1l0-5-3 0 0 15 3 0 0-7c0-1 1-2 2-2 1 0 2 1 2 2l0 7 3 0z m0-3l0 0c0-2-1-3-3-3l-3-1c-1 0-1-1-1-1 0-1 1-1 2-1 1 0 2 0 2 1l2 0c0-2-1-3-4-3-3 0-5 1-5 3 0 2 0 3 2 3l4 1c1 0 1 1 1 1 0 1-1 1-2 1-2 0-2 0-3-2l-2 0c0 3 1 4 5 4 3 0 5-1 5-3z m-5-6l0-2-1 0 0-1c0-1 0-1 0-1 1 0 1 0 1 0l0-2c0 0-1 0-1 0-2 0-3 1-3 3l0 1-2 0 0 2 2 0 0 9 3 0 0-9 1 0z m6 4c0-4-2-6-6-6-3 0-5 2-5 5 0 4 2 6 5 6 4 0 6-2 6-5z m-3-1c0 3-1 4-3 4-1 0-2-1-2-4 0-2 1-3 2-3 2 0 3 1 3 3z m5 6l0-15-4 0 0 10-5-10-4 0 0 15 3 0 0-10 6 10 4 0z m-3 0l0-11-3 0 0 7c0 1-1 2-2 2-1 0-2-1-2-2l0-7-3 0 0 7c0 3 2 4 4 4 1 0 2 0 3-1l0 1 3 0z m0 0l0-7c0-3-1-4-4-4-1 0-2 0-3 1l0-1-3 0 0 11 3 0 0-7c0-1 1-2 2-2 2 0 2 1 2 2l0 7 3 0z m2-10c0-3-2-5-5-5l-6 0 0 15 3 0 0-5 3 0c3 0 5-2 5-5z m-3 0c0 1-1 2-2 2l-3 0 0-4 3 0c1 0 2 0 2 2z m-6 12l0-13-3 0 0 12c0 1 0 1 0 1-1 0-1 0-1 0l0 2c1 0 1 0 2 0 2 0 2 0 2-2z m0-14l0-3-3 0 0 3 3 0z m343 148c-3-3-5-6-7-8-1-1-2-1-2-2 0 0-1-1-2-1 0 0 0 0 0 0 0 0-1-1-1-1-3-2-6-5-10-6-8-4-17-6-26-6-14 0-26 7-32 12-4 4-8 9-10 15-2-6-6-11-10-15-5-5-18-12-32-12-9 0-18 2-25 6-4 1-8 4-11 6 0 0 0 1 0 1 0 0-1 0-1 0 0 0-1 1-1 1-1 1-2 1-2 2-3 2-5 5-7 8-8 11-13 25-13 39 0 11 3 21 8 31 16 42 79 85 91 92 0 0 1 1 2 1 1 0 2-1 2-1 12-7 75-49 94-92 4-10 8-20 8-31 0-15-5-28-13-39z"/>
    </symbol>
  
    <symbol id="icon-spades" viewBox="0 0 512 512">
      <path d="m14-5l-3 0c0 2-1 3-3 3-3 0-4-2-4-5 0-4 1-6 4-6 2 0 3 1 3 3l3 0c0-3-3-5-6-5-4 0-7 3-7 8 0 4 3 7 7 7 3 0 6-2 6-5z m-6-3l0-3c-1 0-1 0-1 0-1 0-2 1-3 2l0-2-3 0 0 11 3 0 0-6c0-2 1-2 3-2 0 0 0 0 1 0z m3 3c0-4-2-6-5-6-4 0-6 2-6 6 0 3 2 5 6 5 2 0 4-1 5-3l-3 0c0 1-1 1-2 1-2 0-3-1-3-3l8 0z m-3-2l-5 0c1-1 1-2 3-2 1 0 2 1 2 2z m3 7l0 0c-1-1-1-1-1-2l0-6c0-2-1-3-4-3-3 0-5 1-5 4l3 0c0-2 0-2 2-2 1 0 1 0 1 1 0 1-1 1-2 1l-1 1c-2 0-3 1-3 3 0 2 1 3 3 3 1 0 2 0 3-1 0 0 0 1 1 1l3 0z m-4-5c0 2-1 3-2 3-1 0-2-1-2-1 0-1 1-1 2-2l1 0c1 0 1 0 1 0z m-1 5l0-2c0 0 0 0 0 0-1 0-1 0-1-1l0-6 1 0 0-2-1 0 0-3-3 0 0 3-2 0 0 2 2 0 0 7c0 1 1 2 3 2 0 0 1 0 1 0z m5 0l0-15-3 0 0 5c0-1-1-1-3-1-2 0-4 2-4 5 0 4 1 6 4 6 2 0 3 0 3-1l0 1 3 0z m-3-5c0 2-1 3-2 3-2 0-3-2-3-4 0-2 1-3 3-3 1 0 2 1 2 4z m4 0c0-4-2-6-5-6-1 0-2 0-3 1l0-5-3 0 0 15 3 0 0-1c1 1 2 1 3 1 3 0 5-2 5-5z m-3-1c0 2-1 4-2 4-2 0-3-1-3-4 0-2 1-3 3-3 1 0 2 1 2 3z m2-5l-3 0-2 8-3-8-3 0 4 11 0 1c0 1 0 1-1 1-1 0-1 0-1 0l0 2c0 0 0 0 1 0 2 0 3 0 3-2z m1-1l0-3-12 0 0 3 5 0 0 12 3 0 0-12 4 0z m-8 12l0-11-3 0 0 11 3 0z m0-12l0-3-3 0 0 3 3 0z m13 12l0-8c0-2-1-3-4-3-1 0-2 0-3 1 0-1-2-1-3-1-1 0-2 0-3 1l0-1-3 0 0 11 3 0 0-7c0-1 1-2 2-2 1 0 2 1 2 2l0 7 2 0 0-7c0-1 1-2 2-2 1 0 2 1 2 2l0 7 3 0z m-4-5c0-2-1-3-4-4l-2 0c-3 0-3-1-3-2 0-1 1-2 2-2 2 0 4 1 4 3l2 0c0-4-2-5-5-5-4 0-6 1-6 4 0 3 1 4 4 4l2 1c2 0 3 1 3 2 0 1-1 2-3 2-2 0-3-1-3-3l-3 0c0 3 2 5 6 5 4 0 6-1 6-5z m-2 1l-3 0c0 1-1 2-2 2-2 0-2-1-2-3 0-3 0-4 2-4 1 0 2 1 2 2l3 0c-1-3-2-4-5-4-3 0-5 2-5 6 0 3 2 5 5 5 3 0 4-2 5-4z m0 4l0-7c0-3-1-4-4-4-1 0-2 0-3 1l0-5-3 0 0 15 3 0 0-7c0-1 1-2 2-2 1 0 2 1 2 2l0 7 3 0z m0-3l0 0c0-2-1-3-3-3l-3-1c-1 0-1-1-1-1 0-1 1-1 2-1 1 0 2 0 2 1l2 0c0-2-1-3-4-3-3 0-5 1-5 3 0 2 0 3 2 3l4 1c1 0 1 1 1 1 0 1-1 1-2 1-2 0-2 0-3-2l-2 0c0 3 1 4 5 4 3 0 5-1 5-3z m-5-6l0-2-1 0 0-1c0-1 0-1 0-1 1 0 1 0 1 0l0-2c0 0-1 0-1 0-2 0-3 1-3 3l0 1-2 0 0 2 2 0 0 9 3 0 0-9 1 0z m6 4c0-4-2-6-6-6-3 0-5 2-5 5 0 4 2 6 5 6 4 0 6-2 6-5z m-3-1c0 3-1 4-3 4-1 0-2-1-2-4 0-2 1-3 2-3 2 0 3 1 3 3z m5 6l0-15-4 0 0 10-5-10-4 0 0 15 3 0 0-10 6 10 4 0z m-3 0l0-11-3 0 0 7c0 1-1 2-2 2-1 0-2-1-2-2l0-7-3 0 0 7c0 3 2 4 4 4 1 0 2 0 3-1l0 1 3 0z m0 0l0-7c0-3-1-4-4-4-1 0-2 0-3 1l0-1-3 0 0 11 3 0 0-7c0-1 1-2 2-2 2 0 2 1 2 2l0 7 3 0z m2-10c0-3-2-5-5-5l-6 0 0 15 3 0 0-5 3 0c3 0 5-2 5-5z m-3 0c0 1-1 2-2 2l-3 0 0-4 3 0c1 0 2 0 2 2z m-6 12l0-13-3 0 0 12c0 1 0 1 0 1-1 0-1 0-1 0l0 2c1 0 1 0 2 0 2 0 2 0 2-2z m0-14l0-3-3 0 0 3 3 0z m340 225c-9-18-38-57-59-86-11-14-19-25-22-29-2-3-5-8-5-8-1-2-3-2-4 0 0 0-3 5-5 8-3 5-11 15-22 29-21 29-50 68-59 86-4 8-6 17-6 27 0 2 0 4 0 6 3 21 20 37 40 37 16 0 31-7 41-20-3 20-12 40-27 55-1 0-1 1-1 2 1 0 2 1 2 1l78 0c1 0 2 0 2-1 0-1 0-2 0-2-16-15-25-35-27-55 9 13 25 20 40 20 21 0 38-16 40-37 0-2 0-4 0-7 0-9-2-18-6-26z"/>
    </symbol>
  
</svg>
