<?xml version="1.0" encoding="UTF-8" standalone="no"?>
<svg
   xmlns:dc="http://purl.org/dc/elements/1.1/"
   xmlns:cc="http://creativecommons.org/ns#"
   xmlns:rdf="http://www.w3.org/1999/02/22-rdf-syntax-ns#"
   xmlns:svg="http://www.w3.org/2000/svg"
   xmlns="http://www.w3.org/2000/svg"
   xmlns:sodipodi="http://sodipodi.sourceforge.net/DTD/sodipodi-0.dtd"
   xmlns:inkscape="http://www.inkscape.org/namespaces/inkscape"
   version="1.1"
   x="0px"
   y="0px"
   viewBox="0 0 200 200"
   enable-background="new 0 0 397 456"
   xml:space="preserve"
   id="svg2"
   inkscape:version="0.91 r13725"
   sodipodi:docname="Phoenix.svg"
   width="200"
   height="200"><metadata
     id="metadata14"><rdf:RDF><cc:Work
         rdf:about=""><dc:format>image/svg+xml</dc:format><dc:type
           rdf:resource="http://purl.org/dc/dcmitype/StillImage" /><dc:title></dc:title></cc:Work></rdf:RDF></metadata><defs
     id="defs12" /><sodipodi:namedview
     pagecolor="#ffffff"
     bordercolor="#666666"
     borderopacity="0"
     objecttolerance="10"
     gridtolerance="10"
     guidetolerance="10"
     inkscape:pageopacity="0"
     inkscape:pageshadow="2"
     inkscape:window-width="870"
     inkscape:window-height="762"
     id="namedview10"
     showgrid="false"
     fit-margin-top="0"
     fit-margin-left="0"
     fit-margin-right="0"
     fit-margin-bottom="0"
     inkscape:zoom="0.20541276"
     inkscape:cx="64.39324"
     inkscape:cy="-1024.4205"
     inkscape:window-x="2643"
     inkscape:window-y="170"
     inkscape:window-maximized="0"
     inkscape:current-layer="svg2" /><g
     id="g4184"
     transform="translate(1.8924484,-1654.1753)"><circle
       r="100"
       cy="1754.1753"
       cx="98.107552"
       id="path4152-0"
       style="color:#000000;clip-rule:nonzero;display:inline;overflow:visible;visibility:visible;opacity:1;isolation:auto;mix-blend-mode:normal;color-interpolation:sRGB;color-interpolation-filters:linearRGB;solid-color:#000000;solid-opacity:1;fill:#000000;fill-opacity:1;fill-rule:evenodd;stroke:none;stroke-width:1.01499999;stroke-linecap:round;stroke-linejoin:miter;stroke-miterlimit:4;stroke-dasharray:none;stroke-dashoffset:0;stroke-opacity:1;color-rendering:auto;image-rendering:auto;shape-rendering:auto;text-rendering:auto;enable-background:accumulate" /><circle
       r="96.07843"
       cy="1754.1753"
       cx="98.107552"
       id="path4152-0-3"
       style="color:#000000;clip-rule:nonzero;display:inline;overflow:visible;visibility:visible;opacity:1;isolation:auto;mix-blend-mode:normal;color-interpolation:sRGB;color-interpolation-filters:linearRGB;solid-color:#000000;solid-opacity:1;fill:#000000;fill-opacity:0;fill-rule:evenodd;stroke:#fe6c2b;stroke-width:3.84313726;stroke-linecap:round;stroke-linejoin:miter;stroke-miterlimit:4;stroke-dasharray:none;stroke-dashoffset:0;stroke-opacity:1;color-rendering:auto;image-rendering:auto;shape-rendering:auto;text-rendering:auto;enable-background:accumulate" /><path
       style="fill:#fe6c2b;fill-opacity:1"
       inkscape:connector-curvature="0"
       id="path4"
       d="m 164.87503,1730.3871 c -0.4345,0.7059 -0.82319,1.4529 -1.21052,2.0698 -0.98293,1.5655 -1.94176,3.1486 -3.00526,4.6609 -1.53207,2.1787 -3.25212,4.7003 -5.82254,5.7266 2.02129,-1.173 3.54199,-3.8753 4.90639,-5.7341 4.80589,-6.548 6.46775,-15.3751 5.75474,-23.3576 -0.27887,-3.1155 -1.00497,-6.4854 -2.23063,-9.3757 -0.56566,11.0196 -4.08356,22.6736 -12.96922,29.9051 -1.42363,1.1588 -2.98014,2.1176 -4.62755,2.895 5.29581,-3.2387 8.49628,-8.3782 10.32134,-11.5641 2.61794,-6.4323 4.38103,-13.0403 3.65286,-20.1056 -0.78324,-7.6039 -7.2899,-18.1776 -10.91866,-19.047 3.65321,5.6047 5.23073,12.5874 4.88644,18.7846 -1.42431,8.782 -3.01318,21.6538 -13.67673,27.4585 9.41413,-7.0076 11.34626,-21.6924 11.26673,-28.4913 -0.003,0.043 -0.003,0.075 -0.005,0.1061 0.0147,-1.0701 -0.0881,-8.9308 -4.51322,-16.0162 -3.36023,-5.3805 -9.28883,-8.1724 -15.10622,-9.9109 3.03729,2.6912 5.16429,5.8529 7.91512,9.8572 2.04747,3.4521 7.0162,13.9291 3.36367,29.6116 -2.03749,8.7483 -6.47704,13.4826 -11.72532,15.6977 5.22797,-3.371 9.34046,-9.1036 10.43081,-15.9181 0.83214,-5.2004 1.43843,-14.7935 -1.11892,-22.11 -1.24013,-3.5475 -3.30583,-6.3017 -4.79797,-8.3716 -0.69373,-0.9622 -1.62468,-1.7287 -2.46508,-2.5655 -3.01318,-2.9999 -6.82443,-4.8982 -10.85187,-6.1363 -1.49626,-0.4596 -2.30361,-0.9888 -4.36933,-1.3331 -1.69801,-0.2829 -3.44286,0 -2.06571,0.6885 0.48407,0.2422 1.50143,1.0365 1.89288,1.37 7.6724,6.5422 12.69966,14.9678 14.69547,24.5907 0.9702,4.6808 1.82954,8.5685 1.31449,12.9436 -0.68857,5.8529 -1.03286,13.083 -11.36142,17.5587 -0.74917,0.3246 -1.50246,0.5921 -2.25678,0.8059 -0.0923,-0.013 -0.18455,-0.013 -0.27648,-0.021 -0.55532,0.079 -1.10755,0.1216 -1.65635,0.1441 -0.70303,-0.036 -1.39469,-0.1216 -2.07328,-0.2506 -0.1601,-0.098 -0.3226,-0.1934 -0.47994,-0.294 -4.00748,-2.5636 -5.9761,-5.8174 -5.90345,-10.5423 0.85692,0.8469 1.80095,1.9093 2.07982,3.1209 -0.65277,-4.2061 -1.85019,-8.8309 -5.35398,-11.631 2.69679,-0.013 5.38325,-0.2152 8.06626,-0.4717 -3.66802,-1.1226 -6.99037,-3.0906 -10.43288,-4.7325 3.12026,-0.5253 6.25428,-1.2708 9.02854,-2.8432 -3.61328,-0.2362 -7.33638,-0.3683 -10.86082,-1.2706 -1.08209,-0.2769 -3.025226,-0.7051 -3.795058,-1.654 -0.123598,-0.1525 -0.363224,-0.2617 -0.523656,-0.3767 1.726587,-1.9937 3.152614,-4.7693 0.485787,-6.6567 0.418656,4.118 -1.722808,5.0097 -5.351571,4.7886 -4.866818,-0.2961 -10.594698,-0.8855 -15.046989,1.5284 -1.000489,0.5425 -2.541859,1.4432 -2.779078,2.6847 -3.620842,1.4163 -7.253746,3.1709 -8.556513,7.1108 0.05811,0.2021 8.493174,0.08 12.736137,0.2256 3.274157,0.1126 6.867808,0.1535 9.929195,1.4666 7.356688,3.1549 4.164468,12.6222 0.772575,17.6053 -0.216563,0.3181 -0.440684,0.629 -0.669296,0.9359 -0.04258,0.013 -0.08257,0.028 -0.125669,0.043 -0.452397,0.358 -0.935764,0.6365 -1.455292,0.8697 -8.873612,1.1506 -15.947305,-0.89 -22.031511,-9.826 -0.984311,-1.4459 -1.936602,-2.9973 -2.473693,-4.6406 -0.490252,-1.4997 -1.141299,-3.4962 -1.485589,-6.5948 -0.195894,-1.7641 0.01721,-7.2062 0.34429,-8.9514 1.032856,-5.5085 5.422481,-17.7475 15.656026,-25.5391 0.592522,-0.451 2.935381,-1.6595 2.935381,-2.348 -1.032856,-0.3443 -2.065713,-0.3443 -4.475716,0.3443 -1.493511,0.4383 -3.010084,0.8108 -4.47639,1.3268 -5.353978,1.8843 -9.234429,5.4701 -13.339686,11.123 -3.469017,6.3971 -9.119424,18.2139 -0.689253,34.7727 3.086857,6.0636 7.373902,9.6892 11.911573,11.6156 -5.264806,-1.4805 -10.371937,-4.9894 -13.854025,-11.8298 -8.429834,-16.5587 -1.363039,-32.3183 -1.499373,-32.1489 0.0286,-0.07 1.850536,-4.1825 3.172251,-6.4114 0.750534,-1.2648 1.747243,-2.7102 2.75428,-3.7871 0.937834,-1.0025 3.583322,-3.0442 4.475704,-4.1313 -6.324868,1.4353 -12.330579,5.3739 -15.783418,11.0488 -5.21798,8.5754 -4.184787,18.6151 -4.185124,18.5596 -0.179379,3.6288 0.344277,12.7386 7.967097,24.1 2.108074,3.142 4.890232,5.8728 8.030463,7.7925 -3.527554,-1.6281 -6.701513,-4.1349 -9.14835,-7.5783 -7.710271,-10.8513 -7.955747,-21.3457 -8.300037,-25.8215 -0.01035,-3.4658 0.302979,-6.0298 0.723692,-9.4806 0.411771,-3.3826 1.607467,-6.6694 2.572157,-10.44 -4.893324,6.2377 -9.19379,12.2039 -10.007689,20.1389 -0.801501,7.8112 1.228414,14.8298 4.804165,21.5912 -0.09914,-0.1385 -0.193836,-0.2779 -0.289894,-0.417 1.523123,2.8718 4.858212,9.1963 10.749967,13.5938 -3.961689,-2.1663 -7.480636,-5.1391 -9.9619,-8.7954 -4.793138,-7.0637 -6.164771,-13.7966 -7.197628,-19.3051 -0.254768,-1.3589 -0.762247,-8.6282 -1.032857,-9.9843 -2.232694,5.7751 -3.870459,11.9184 -3.010084,18.1397 0.732985,5.3013 2.395185,10.7121 5.428008,15.164 1.685276,2.4737 3.775088,4.6247 5.864201,6.7549 -3.247976,-1.7874 -5.831496,-4.5008 -7.883788,-7.5559 -1.715224,-2.5537 -2.611061,-5.5263 -4.228856,-8.0915 -0.149069,10.9844 6.404061,23.0171 16.529486,27.7605 3.368494,1.5777 6.932183,2.7146 10.459387,3.8759 -5.243114,-0.039 -10.055886,-0.5794 -14.085742,-4.2175 0.210014,3.4077 3.180844,5.1563 5.786741,6.873 2.668214,1.7579 5.713424,2.8727 8.810609,3.6163 3.708305,0.8901 7.588743,1.1458 11.390686,1.2615 3.686602,0.1126 7.508514,-0.3009 11.138998,0.4989 3.546139,0.7819 6.648152,2.9955 8.599909,6.0419 -1.931438,3.5846 -3.851175,7.194 -4.387917,11.285 -0.447219,3.4069 -0.110526,6.8309 0.265796,10.2261 0.268875,2.4243 0.520214,4.8494 0.750883,7.2776 3.072052,-3.6588 3.37226,-9.0537 3.960305,-13.5617 0.571517,1.9723 -0.0541,4.5604 -0.08607,6.5647 -0.04892,3.0842 0.218957,6.1694 0.763282,9.2042 1.140278,6.3568 3.912793,12.3764 4.728764,18.7732 0.240299,1.8833 0.285752,3.77 0.137019,5.6628 -0.12088,1.54 -0.94437,3.3572 -0.342568,4.8558 3.276914,-4.7356 4.751827,-8.7707 4.260526,-14.5788 -0.493359,-5.8314 -1.687683,-11.4429 -2.709513,-17.185 -0.562225,-3.1613 -0.466517,-6.2515 -0.142546,-9.432 -0.316736,7.8828 2.643093,15.563 5.756119,22.6956 0.83764,-5.0964 2.43823,-9.9622 3.5093,-15.0004 1.12133,-5.2745 0.99739,-10.0113 -0.65587,-15.15 2.39727,1.6663 3.22389,4.7125 3.66044,7.4661 2.8283,-4.6633 1.78615,-8.3248 0.40832,-13.3241 -1.3582,-4.9295 -0.90306,-9.5074 4.47846,-11.3996 4.77731,-1.6795 10.16125,-0.9589 15.12309,-0.9982 5.40665,-0.043 10.99784,-0.538 16.08431,-2.4922 4.75768,-1.8286 7.72852,-4.9829 10.12716,-9.3698 -5.46003,3.2291 -10.49553,5.6067 -16.95329,4.2988 5.8907,-1.2715 11.74012,-2.7092 16.63034,-6.4161 4.83102,-3.6622 8.75416,-8.9367 10.70177,-14.6894 0.98914,-2.9212 1.33652,-5.9525 1.57856,-9.0115 -0.52125,0.4469 -0.96676,1.07 -1.37234,1.7293 z" /></g></svg>