<?xml version="1.0" encoding="UTF-8" standalone="no"?>
<!-- Created with Inkscape (http://www.inkscape.org/) -->

<svg
   xmlns:dc="http://purl.org/dc/elements/1.1/"
   xmlns:cc="http://creativecommons.org/ns#"
   xmlns:rdf="http://www.w3.org/1999/02/22-rdf-syntax-ns#"
   xmlns:svg="http://www.w3.org/2000/svg"
   xmlns="http://www.w3.org/2000/svg"
   xmlns:sodipodi="http://sodipodi.sourceforge.net/DTD/sodipodi-0.dtd"
   xmlns:inkscape="http://www.inkscape.org/namespaces/inkscape"
   width="44.333332mm"
   height="44.333332mm"
   viewBox="0 0 157.08661 157.0866"
   id="svg6694"
   version="1.1"
   inkscape:version="0.91 r13725"
   sodipodi:docname="Spades.svg">
  <defs
     id="defs6696">
    <clipPath
       clipPathUnits="userSpaceOnUse"
       id="clipPath4175">
      <a
         id="a4177"
         style="fill:#000000">
        <circle
           style="fill:#000000;fill-rule:evenodd;stroke:#000000;stroke-width:0.15952933px;stroke-linecap:butt;stroke-linejoin:miter;stroke-opacity:1"
           id="circle4179"
           cx="1251.6433"
           cy="-169.28076"
           r="74.920235" />
      </a>
    </clipPath>
  </defs>
  <sodipodi:namedview
     id="base"
     pagecolor="#ffffff"
     bordercolor="#666666"
     borderopacity="1.0"
     inkscape:pageopacity="0.0"
     inkscape:pageshadow="2"
     inkscape:zoom="0.87587329"
     inkscape:cx="68.899544"
     inkscape:cy="-125.65969"
     inkscape:document-units="px"
     inkscape:current-layer="layer1"
     showgrid="false"
     fit-margin-top="1"
     fit-margin-left="1"
     fit-margin-right="1"
     fit-margin-bottom="1"
     inkscape:window-width="870"
     inkscape:window-height="411"
     inkscape:window-x="2531"
     inkscape:window-y="203"
     inkscape:window-maximized="0" />
  <metadata
     id="metadata6699">
    <rdf:RDF>
      <cc:Work
         rdf:about="">
        <dc:format>image/svg+xml</dc:format>
        <dc:type
           rdf:resource="http://purl.org/dc/dcmitype/StillImage" />
        <dc:title></dc:title>
      </cc:Work>
    </rdf:RDF>
  </metadata>
  <g
     inkscape:label="Layer 1"
     inkscape:groupmode="layer"
     id="layer1"
     transform="translate(-225.00762,-264.18788)">
    <path
       style="opacity:1;fill:#ffd700;fill-opacity:1"
       d="m 281.57381,391.74762 c 1.448,-0.42793 3.8896,-1.42725 5.4259,-2.2207 8.1026,-4.18484 11.3421,-11.40913 12.5834,-28.06171 l 0.2097,-2.8125 -0.9182,1.25013 c -2.353,3.20385 -6.2504,5.72862 -10.7147,6.94104 -3.0583,0.83059 -10.8285,0.73159 -14.2006,-0.18093 -7.4654,-2.02019 -12.2407,-6.57654 -14.1503,-13.50156 -0.4174,-1.51378 -0.5529,-3.16359 -0.55,-6.69618 0.01,-7.04936 1.0605,-10.90643 4.3581,-15.9375 3.1727,-4.84049 6.6652,-8.08966 18.1366,-16.87312 11.0905,-8.49186 15.5144,-12.57104 19.5458,-18.0225 1.0593,-1.43241 2.0302,-2.64403 2.1575,-2.6925 0.1274,-0.0485 0.6275,0.51403 1.1114,1.25 3.5466,5.39416 9.5753,11.12594 19.9978,19.0127 10.3846,7.85821 14.3478,11.36846 17.3828,15.39626 3.1804,4.22064 4.6852,7.73486 5.4427,12.71041 2.0552,13.49854 -2.9405,22.30314 -14.388,25.35838 -3.401,0.90767 -11.1714,1.00415 -14.2188,0.17654 -4.547,-1.23489 -8.2657,-3.64504 -10.7096,-6.94117 l -0.9268,-1.25 0.2142,2.96875 c 0.9664,13.3931 3.4441,20.81817 8.3942,25.15554 2.0746,1.81781 6.2492,3.97615 9.6141,4.97062 l 2.6327,0.77807 -24.5313,0 -24.5312,0 2.6326,-0.77807 z"
       id="path3363"
       inkscape:connector-curvature="0" />
  </g>
</svg>
