<?xml version="1.0" encoding="UTF-8" standalone="no"?>
<svg
   xmlns:dc="http://purl.org/dc/elements/1.1/"
   xmlns:cc="http://creativecommons.org/ns#"
   xmlns:rdf="http://www.w3.org/1999/02/22-rdf-syntax-ns#"
   xmlns:svg="http://www.w3.org/2000/svg"
   xmlns="http://www.w3.org/2000/svg"
   xmlns:sodipodi="http://sodipodi.sourceforge.net/DTD/sodipodi-0.dtd"
   xmlns:inkscape="http://www.inkscape.org/namespaces/inkscape"
   data-name="Layer 1"
   viewBox="0 0 125 125"
   x="0px"
   y="0px"
   version="1.1"
   id="svg10"
   sodipodi:docname="noun_Settings_1187813.svg"
   width="125"
   height="125"
   inkscape:version="0.92.2 (5c3e80d, 2017-08-06)">
  <metadata
     id="metadata16">
    <rdf:RDF>
      <cc:Work
         rdf:about="">
        <dc:format>image/svg+xml</dc:format>
        <dc:type
           rdf:resource="http://purl.org/dc/dcmitype/StillImage" />
        <dc:title>setng cog</dc:title>
      </cc:Work>
    </rdf:RDF>
  </metadata>
  <defs
     id="defs14" />
  <sodipodi:namedview
     pagecolor="#ffffff"
     bordercolor="#666666"
     borderopacity="1"
     objecttolerance="10"
     gridtolerance="10"
     guidetolerance="10"
     inkscape:pageopacity="0"
     inkscape:pageshadow="2"
     inkscape:window-width="724"
     inkscape:window-height="480"
     id="namedview12"
     showgrid="false"
     inkscape:zoom="1.888"
     inkscape:cx="50"
     inkscape:cy="62.5"
     inkscape:window-x="0"
     inkscape:window-y="0"
     inkscape:window-maximized="0"
     inkscape:current-layer="svg10" />
  <title
     id="title2">setng cog</title>
  <path
     d="m 110.93995,56.229969 c -0.8,-0.51 -7.11,-4.28 -9.61,-5.43 l -3.100001,-7.5 c 0.92,-2.48 2.690001,-9.43 3.000001,-10.64 a 3.34,3.34 0 0 0 -0.9,-3.1 l -4.890001,-4.86 a 3.32,3.32 0 0 0 -3.1,-0.9 c -0.92,0.21 -8,2 -10.64,3 l -7.5,-3.1 c -1.09,-2.4 -4.76,-8.55 -5.43,-9.61 a 3.32,3.32 0 0 0 -2.83,-1.59 h -6.88 a 3.35,3.35 0 0 0 -2.83,1.56 c -0.51,0.8 -4.28,7.11 -5.43,9.61 l -7.5,3.1 c -2.48,-0.92 -9.43,-2.69 -10.64,-3 a 3.34,3.34 0 0 0 -3.1,0.9 l -4.86,4.89 a 3.32,3.32 0 0 0 -0.9,3.1 c 0.21,0.92 2,8 3,10.64 l -3.1,7.5 c -2.4,1.09 -8.55,4.76 -9.61,5.43 a 3.32,3.32 0 0 0 -1.59,2.83 v 6.87 a 3.35,3.35 0 0 0 1.56,2.83 c 0.8,0.51 7.11,4.28 9.61,5.43 l 3.1,7.5 c -0.92,2.48 -2.69,9.43 -3,10.64 a 3.34,3.34 0 0 0 0.9,3.1 l 4.86,4.860001 a 3.32,3.32 0 0 0 3.1,0.9 c 0.92,-0.21 8,-2.000001 10.64,-3.000001 l 7.5,3.100001 c 1.09,2.4 4.76,8.55 5.43,9.61 a 3.32,3.32 0 0 0 2.86,1.6 h 6.87 a 3.35,3.35 0 0 0 2.83,-1.56 c 0.51,-0.8 4.28,-7.11 5.43,-9.61 l 7.5,-3.100001 c 2.48,0.92 9.43,2.690001 10.64,3.000001 a 3.34,3.34 0 0 0 3.1,-0.9 l 4.860001,-4.860001 a 3.32,3.32 0 0 0 0.9,-3.1 c -0.21,-0.92 -2.000001,-8 -3.000001,-10.64 l 3.100001,-7.5 c 2.4,-1.09 8.55,-4.76 9.61,-5.43 a 3.32,3.32 0 0 0 1.6,-2.86 v -6.88 a 3.3,3.3 0 0 0 -1.56,-2.83 z m -48.440001,28.04 a 21.79,21.79 0 1 1 21.81,-21.77 21.82,21.82 0 0 1 -21.81,21.77 z"
     id="path4"
     inkscape:connector-curvature="0" />
</svg>
