<?xml version="1.0" encoding="UTF-8" standalone="no"?>
<svg
   xmlns:dc="http://purl.org/dc/elements/1.1/"
   xmlns:cc="http://creativecommons.org/ns#"
   xmlns:rdf="http://www.w3.org/1999/02/22-rdf-syntax-ns#"
   xmlns:svg="http://www.w3.org/2000/svg"
   xmlns="http://www.w3.org/2000/svg"
   xmlns:sodipodi="http://sodipodi.sourceforge.net/DTD/sodipodi-0.dtd"
   xmlns:inkscape="http://www.inkscape.org/namespaces/inkscape"
   version="1.1"
   x="0px"
   y="0px"
   viewBox="0 0 100 100"
   enable-background="new 0 0 100 100"
   xml:space="preserve"
   id="svg18"
   sodipodi:docname="noun_Stopwatch_569539.svg"
   width="100"
   height="100"
   inkscape:version="0.92.2 (5c3e80d, 2017-08-06)"><metadata
     id="metadata24"><rdf:RDF><cc:Work
         rdf:about=""><dc:format>image/svg+xml</dc:format><dc:type
           rdf:resource="http://purl.org/dc/dcmitype/StillImage" /><dc:title></dc:title></cc:Work></rdf:RDF></metadata><defs
     id="defs22" /><sodipodi:namedview
     pagecolor="#ffffff"
     bordercolor="#666666"
     borderopacity="1"
     objecttolerance="10"
     gridtolerance="10"
     guidetolerance="10"
     inkscape:pageopacity="0"
     inkscape:pageshadow="2"
     inkscape:window-width="1920"
     inkscape:window-height="1017"
     id="namedview20"
     showgrid="false"
     inkscape:zoom="1.888"
     inkscape:cx="50"
     inkscape:cy="62.5"
     inkscape:window-x="-8"
     inkscape:window-y="-8"
     inkscape:window-maximized="1"
     inkscape:current-layer="svg18" /><g
     id="g12"
     transform="translate(5.0037966e-4)"><path
       d="m 35.964,25.881 c 0.432,0 0.869,-0.089 1.289,-0.274 0.417,-0.185 0.838,-0.359 1.265,-0.525 1.641,-0.639 2.453,-2.486 1.813,-4.127 -0.639,-1.643 -2.488,-2.457 -4.127,-1.814 -0.518,0.201 -1.027,0.413 -1.532,0.636 -1.609,0.713 -2.338,2.597 -1.625,4.206 0.527,1.19 1.693,1.898 2.917,1.898 z"
       id="path2"
       inkscape:connector-curvature="0" /><path
       d="m 24.874,33.662 c 0.839,0 1.676,-0.33 2.302,-0.984 0.318,-0.33 0.642,-0.654 0.974,-0.973 1.271,-1.218 1.316,-3.235 0.098,-4.507 -1.218,-1.275 -3.236,-1.315 -4.507,-0.099 -0.4,0.382 -0.789,0.771 -1.169,1.169 -1.219,1.272 -1.174,3.29 0.098,4.507 0.617,0.592 1.411,0.887 2.204,0.887 z"
       id="path4"
       inkscape:connector-curvature="0" /><path
       d="m 16.425,44.866 c 0.38,0.147 0.771,0.219 1.155,0.219 1.276,0 2.481,-0.771 2.972,-2.033 0.167,-0.426 0.343,-0.848 0.528,-1.266 0.713,-1.609 -0.016,-3.493 -1.626,-4.206 -1.614,-0.712 -3.493,0.014 -4.206,1.625 -0.223,0.505 -0.436,1.017 -0.637,1.533 -0.639,1.642 0.173,3.49 1.814,4.128 z"
       id="path6"
       inkscape:connector-curvature="0" /><path
       d="m 53.188,16.697 v -2.82 h 3.185 c 1.761,0 3.188,-1.428 3.188,-3.188 0,-1.76 -1.427,-3.189 -3.188,-3.189 h -12.75 c -1.761,0 -3.188,1.428 -3.188,3.188 0,1.76 1.427,3.188 3.188,3.188 h 3.188 v 3.781 c -0.507,0.579 -0.815,1.337 -0.795,2.168 0.04,1.736 1.458,3.114 3.185,3.114 0.025,0 0.052,0 0.076,-0.002 0.203,-0.005 0.408,-0.006 0.61,-0.006 0.039,10e-4 0.073,0.011 0.112,0.011 0.028,0 0.055,-0.008 0.082,-0.008 17.384,0.045 31.515,14.197 31.515,31.592 0,17.422 -14.175,31.596 -31.597,31.596 -8.44,0 -16.376,-3.286 -22.345,-9.255 -5.967,-5.967 -9.253,-13.901 -9.252,-22.341 0,-0.24 0.004,-0.482 0.008,-0.723 0.042,-1.761 -1.351,-3.221 -3.111,-3.262 -1.802,-0.077 -3.222,1.352 -3.262,3.112 -0.008,0.29 -0.011,0.582 -0.011,0.872 -0.002,10.143 3.947,19.678 11.12,26.851 C 30.319,88.551 39.856,92.5 50,92.5 c 20.938,0 37.973,-17.034 37.973,-37.973 0,-19.864 -15.334,-36.203 -34.785,-37.83 z"
       id="path8"
       inkscape:connector-curvature="0" /><path
       d="m 32.225,58.705 h 17.723 c 1.761,0 3.188,-1.427 3.188,-3.188 V 37.11 c 0,-1.761 -1.428,-3.188 -3.188,-3.188 -1.76,0 -3.188,1.428 -3.188,3.188 V 52.329 H 32.225 c -1.761,0 -3.188,1.428 -3.188,3.188 0,1.76 1.427,3.188 3.188,3.188 z"
       id="path10"
       inkscape:connector-curvature="0" /></g></svg>