<?xml version="1.0" encoding="UTF-8" standalone="no"?>
<svg
   xmlns:dc="http://purl.org/dc/elements/1.1/"
   xmlns:cc="http://creativecommons.org/ns#"
   xmlns:rdf="http://www.w3.org/1999/02/22-rdf-syntax-ns#"
   xmlns:svg="http://www.w3.org/2000/svg"
   xmlns="http://www.w3.org/2000/svg"
   xmlns:sodipodi="http://sodipodi.sourceforge.net/DTD/sodipodi-0.dtd"
   xmlns:inkscape="http://www.inkscape.org/namespaces/inkscape"
   version="1.1"
   x="0px"
   y="0px"
   viewBox="0 0 69.860001 80.231003"
   enable-background="new 0 0 100 100"
   xml:space="preserve"
   id="svg2"
   inkscape:version="0.91 r13725"
   sodipodi:docname="trash.svg"
   width="69.860001"
   height="80.231003"><metadata
     id="metadata14"><rdf:RDF><cc:Work
         rdf:about=""><dc:format>image/svg+xml</dc:format><dc:type
           rdf:resource="http://purl.org/dc/dcmitype/StillImage" /><dc:title></dc:title></cc:Work></rdf:RDF></metadata><defs
     id="defs12" /><sodipodi:namedview
     pagecolor="#ffffff"
     bordercolor="#666666"
     borderopacity="1"
     objecttolerance="10"
     gridtolerance="10"
     guidetolerance="10"
     inkscape:pageopacity="0"
     inkscape:pageshadow="2"
     inkscape:window-width="870"
     inkscape:window-height="480"
     id="namedview10"
     showgrid="false"
     fit-margin-top="2"
     fit-margin-left="2"
     fit-margin-right="2"
     fit-margin-bottom="2"
     inkscape:zoom="1.8733643"
     inkscape:cx="30.125809"
     inkscape:cy="14.808962"
     inkscape:window-x="119"
     inkscape:window-y="18"
     inkscape:window-maximized="0"
     inkscape:current-layer="svg2" /><path
     d="m 44.765,62.209 0,-37.599 c 0,-1.657 -1.343,-3 -3,-3 -1.657,0 -3,1.343 -3,3 l 0,37.599 c 0,1.658 1.343,3 3,3 1.657,0 3,-1.342 3,-3 z m -13.671,0 0,-37.599 c 0,-1.657 -1.343,-3 -3,-3 -1.657,0 -3,1.343 -3,3 l 0,37.599 c 0,1.658 1.343,3 3,3 1.657,0 3,-1.342 3,-3 z M 58.2,21.61 c -1.657,0 -3,1.343 -3,3 l 0,45.412 c 0,1.217 -0.989,2.209 -2.205,2.209 l -36.127,0 c -1.218,0 -2.209,-0.992 -2.209,-2.209 l 0,-45.412 c 0,-1.657 -1.343,-3 -3,-3 -1.657,0 -3,1.343 -3,3 l 0,45.412 c 0,4.525 3.683,8.209 8.209,8.209 l 36.126,0 c 4.524,0 8.205,-3.684 8.205,-8.209 l 0,-45.412 c 0.001,-1.658 -1.342,-3 -2.999,-3 z m 6.66,-9.347 -13.582,0 0,-7.263 c 0,-1.657 -1.343,-3 -3,-3 L 21.582,2 c -1.657,0 -3,1.343 -3,3 l 0,7.263 -13.582,0 c -1.657,0 -3,1.343 -3,3 0,1.657 1.343,3 3,3 l 59.86,0 c 1.657,0 3,-1.343 3,-3 0,-1.657 -1.343,-3 -3,-3 z m -19.582,0 -20.696,0 0,-4.263 20.695,0 0,4.263 z"
     id="path4"
     inkscape:connector-curvature="0" /></svg>