<svg 
    xmlns="http://www.w3.org/2000/svg" 
    data-name="Layer 1" 
    viewBox="0 0 120 120" 
    x="0px" y="0px"
>
    <title>All</title>
    <path 
        transform="translate(10, 10)"
        d="M50,100A50,50,0,1,0,0,50,50.06,50.06,0,0,0,50,100ZM30.45,48.59L45.8,33c1.21-1.22,2.43-2.43,3.6-3.68,0.46-.49.75-0.47,1.21,0q5.32,5.46,10.69,10.87l8.59,8.71C70,49,70,49.06,70.17,49.26c-0.43,0-.73.06-1,0.06-3.58,0-7.17,0-10.75,0-0.77,0-.91.27-0.91,1,0,6.53,0,13.06,0,19.59,0,1.1,0,1.1-1,1.1h-13c-1,0-1,0-1-1q0-9.76,0-19.51c0-1.13,0-1.13-1.06-1.13H30.86c-0.28,0-.56,0-1-0.05C30.11,49,30.27,48.77,30.45,48.59Z"
    />
</svg>